<svg xmlns="http://www.w3.org/2000/svg" viewBox="0 0 200 100" fill="none">
  <!-- Heavy truck: larger cab, large cargo -->
  <rect x="10" y="28" width="108" height="49" rx="3" fill="#1d4ed8"/>
  <rect x="10" y="22" width="108" height="8" rx="2" fill="#1e40af"/>
  <!-- Cab -->
  <rect x="122" y="36" width="70" height="41" rx="4" fill="#2563eb"/>
  <path d="M122 36 L136 18 L185 18 L192 36Z" fill="#3b82f6"/>
  <rect x="138" y="22" width="22" height="11" rx="2" fill="#bfdbfe"/>
  <rect x="163" y="22" width="18" height="11" rx="2" fill="#bfdbfe"/>
  <!-- 6 wheels (dual rear) -->
  <circle cx="35" cy="80" r="11" fill="#1e3a8a"/>
  <circle cx="35" cy="80" r="5" fill="#93c5fd"/>
  <circle cx="82" cy="80" r="11" fill="#1e3a8a"/>
  <circle cx="82" cy="80" r="5" fill="#93c5fd"/>
  <circle cx="138" cy="80" r="11" fill="#1e3a8a"/>
  <circle cx="138" cy="80" r="5" fill="#93c5fd"/>
  <circle cx="160" cy="80" r="11" fill="#1e3a8a"/>
  <circle cx="160" cy="80" r="5" fill="#93c5fd"/>
  <circle cx="180" cy="80" r="11" fill="#1e3a8a"/>
  <circle cx="180" cy="80" r="5" fill="#93c5fd"/>
  <rect x="10" y="50" width="8" height="5" rx="1" fill="#fbbf24"/>
  <rect x="184" y="50" width="8" height="5" rx="1" fill="#ef4444"/>
</svg>
