<svg xmlns="http://www.w3.org/2000/svg" viewBox="0 0 200 100" fill="none">
  <!-- Medium truck: cab + cargo box -->
  <!-- Cargo box -->
  <rect x="15" y="30" width="100" height="47" rx="3" fill="#1d4ed8"/>
  <!-- Cab -->
  <rect x="118" y="38" width="67" height="39" rx="4" fill="#2563eb"/>
  <path d="M118 38 L130 22 L178 22 L185 38Z" fill="#3b82f6"/>
  <!-- Cab windows -->
  <rect x="133" y="26" width="22" height="10" rx="2" fill="#bfdbfe"/>
  <rect x="158" y="26" width="18" height="10" rx="2" fill="#bfdbfe"/>
  <!-- Wheels (4 for medium truck) -->
  <circle cx="45" cy="80" r="12" fill="#1e3a8a"/>
  <circle cx="45" cy="80" r="5" fill="#93c5fd"/>
  <circle cx="95" cy="80" r="12" fill="#1e3a8a"/>
  <circle cx="95" cy="80" r="5" fill="#93c5fd"/>
  <circle cx="145" cy="80" r="12" fill="#1e3a8a"/>
  <circle cx="145" cy="80" r="5" fill="#93c5fd"/>
  <circle cx="170" cy="80" r="12" fill="#1e3a8a"/>
  <circle cx="170" cy="80" r="5" fill="#93c5fd"/>
  <rect x="185" y="50" width="8" height="5" rx="1" fill="#ef4444"/>
  <rect x="15" y="52" width="8" height="5" rx="1" fill="#fbbf24"/>
</svg>
