<svg xmlns="http://www.w3.org/2000/svg" viewBox="0 0 200 100" fill="none">
  <!-- Excavator side view -->
  <!-- Tracks -->
  <rect x="10" y="72" width="110" height="18" rx="6" fill="#1e3a8a"/>
  <rect x="15" y="76" width="100" height="8" rx="3" fill="#2563eb"/>
  <!-- Track wheels -->
  <circle cx="25" cy="82" r="7" fill="#93c5fd"/>
  <circle cx="55" cy="82" r="7" fill="#93c5fd"/>
  <circle cx="85" cy="82" r="7" fill="#93c5fd"/>
  <circle cx="105" cy="82" r="7" fill="#93c5fd"/>
  <!-- Body/house (rotating) -->
  <rect x="25" y="44" width="80" height="30" rx="5" fill="#f59e0b"/>
  <!-- Cab -->
  <rect x="75" y="32" width="35" height="26" rx="4" fill="#d97706"/>
  <rect x="79" y="35" width="14" height="10" rx="2" fill="#fde68a"/>
  <rect x="96" y="35" width="11" height="10" rx="2" fill="#fde68a"/>
  <!-- Boom arm -->
  <rect x="28" y="30" width="60" height="9" rx="4" fill="#f59e0b" transform="rotate(-25 28 34)"/>
  <!-- Stick -->
  <rect x="20" y="5" width="50" height="8" rx="4" fill="#d97706" transform="rotate(50 20 5)"/>
  <!-- Bucket -->
  <path d="M60 10 L75 10 L80 22 L55 22 Z" fill="#92400e"/>
  <!-- Engine cover -->
  <rect x="25" y="50" width="40" height="8" rx="2" fill="#b45309"/>
  <rect x="190" y="70" width="10" height="10" rx="2" fill="#374151"/>
</svg>
