<svg xmlns="http://www.w3.org/2000/svg" viewBox="0 0 200 100" fill="none">
  <!-- Minibus body -->
  <rect x="15" y="32" width="170" height="45" rx="5" fill="#2563eb"/>
  <rect x="15" y="22" width="170" height="12" rx="4" fill="#3b82f6"/>
  <!-- Passenger windows row -->
  <rect x="20" y="36" width="18" height="12" rx="2" fill="#bfdbfe"/>
  <rect x="42" y="36" width="18" height="12" rx="2" fill="#bfdbfe"/>
  <rect x="64" y="36" width="18" height="12" rx="2" fill="#bfdbfe"/>
  <rect x="86" y="36" width="18" height="12" rx="2" fill="#bfdbfe"/>
  <rect x="108" y="36" width="18" height="12" rx="2" fill="#bfdbfe"/>
  <rect x="130" y="36" width="18" height="12" rx="2" fill="#bfdbfe"/>
  <rect x="155" y="36" width="25" height="12" rx="2" fill="#bfdbfe"/>
  <!-- Wheels -->
  <circle cx="50" cy="80" r="12" fill="#1e3a8a"/>
  <circle cx="50" cy="80" r="5" fill="#93c5fd"/>
  <circle cx="150" cy="80" r="12" fill="#1e3a8a"/>
  <circle cx="150" cy="80" r="5" fill="#93c5fd"/>
  <rect x="15" y="50" width="8" height="5" rx="1" fill="#fbbf24"/>
</svg>
