<svg xmlns="http://www.w3.org/2000/svg" viewBox="0 0 200 100" fill="none">
  <!-- Semi tractor (cab only - no trailer shown) -->
  <!-- Trailer -->
  <rect x="8" y="28" width="112" height="49" rx="3" fill="#3b82f6"/>
  <rect x="8" y="22" width="112" height="8" rx="2" fill="#2563eb"/>
  <!-- Cab -->
  <rect x="124" y="30" width="68" height="47" rx="5" fill="#1d4ed8"/>
  <path d="M124 30 L138 14 L185 14 L192 30Z" fill="#2563eb"/>
  <rect x="140" y="18" width="24" height="10" rx="2" fill="#bfdbfe"/>
  <rect x="167" y="18" width="18" height="10" rx="2" fill="#bfdbfe"/>
  <!-- Exhaust stacks -->
  <rect x="150" y="6" width="5" height="12" rx="2" fill="#64748b"/>
  <rect x="158" y="6" width="5" height="12" rx="2" fill="#64748b"/>
  <!-- Wheels (many) -->
  <circle cx="30" cy="80" r="11" fill="#1e3a8a"/>
  <circle cx="30" cy="80" r="5" fill="#93c5fd"/>
  <circle cx="75" cy="80" r="11" fill="#1e3a8a"/>
  <circle cx="75" cy="80" r="5" fill="#93c5fd"/>
  <circle cx="135" cy="80" r="11" fill="#1e3a8a"/>
  <circle cx="135" cy="80" r="5" fill="#93c5fd"/>
  <circle cx="157" cy="80" r="11" fill="#1e3a8a"/>
  <circle cx="157" cy="80" r="5" fill="#93c5fd"/>
  <circle cx="180" cy="80" r="11" fill="#1e3a8a"/>
  <circle cx="180" cy="80" r="5" fill="#93c5fd"/>
  <rect x="192" y="50" width="8" height="5" rx="1" fill="#ef4444"/>
</svg>
